<svg width="151" height="33" viewBox="0 0 151 33" fill="none" xmlns="http://www.w3.org/2000/svg">
<rect width="151" height="33" rx="12" fill="#00453F"/>
<path d="M35.408 12.696V21H34.316V14.808L31.556 21H30.788L28.016 14.796V21H26.924V12.696H28.1L31.172 19.56L34.244 12.696H35.408ZM40.1279 21.108C39.5119 21.108 38.9519 20.968 38.4479 20.688C37.9519 20.408 37.5599 20.012 37.2719 19.5C36.9919 18.98 36.8519 18.38 36.8519 17.7C36.8519 17.028 36.9959 16.436 37.2839 15.924C37.5799 15.404 37.9799 15.008 38.4839 14.736C38.9879 14.456 39.5519 14.316 40.1759 14.316C40.7999 14.316 41.3639 14.456 41.8679 14.736C42.3719 15.008 42.7679 15.4 43.0559 15.912C43.3519 16.424 43.4999 17.02 43.4999 17.7C43.4999 18.38 43.3479 18.98 43.0439 19.5C42.7479 20.012 42.3439 20.408 41.8319 20.688C41.3199 20.968 40.7519 21.108 40.1279 21.108ZM40.1279 20.148C40.5199 20.148 40.8879 20.056 41.2319 19.872C41.5759 19.688 41.8519 19.412 42.0599 19.044C42.2759 18.676 42.3839 18.228 42.3839 17.7C42.3839 17.172 42.2799 16.724 42.0719 16.356C41.8639 15.988 41.5919 15.716 41.2559 15.54C40.9199 15.356 40.5559 15.264 40.1639 15.264C39.7639 15.264 39.3959 15.356 39.0599 15.54C38.7319 15.716 38.4679 15.988 38.2679 16.356C38.0679 16.724 37.9679 17.172 37.9679 17.7C37.9679 18.236 38.0639 18.688 38.2559 19.056C38.4559 19.424 38.7199 19.7 39.0479 19.884C39.3759 20.06 39.7359 20.148 40.1279 20.148ZM46.0277 15.648C46.2517 15.256 46.5797 14.936 47.0117 14.688C47.4437 14.44 47.9357 14.316 48.4877 14.316C49.0797 14.316 49.6117 14.456 50.0837 14.736C50.5557 15.016 50.9277 15.412 51.1997 15.924C51.4717 16.428 51.6077 17.016 51.6077 17.688C51.6077 18.352 51.4717 18.944 51.1997 19.464C50.9277 19.984 50.5517 20.388 50.0717 20.676C49.5997 20.964 49.0717 21.108 48.4877 21.108C47.9197 21.108 47.4197 20.984 46.9877 20.736C46.5637 20.488 46.2437 20.172 46.0277 19.788V21H44.9357V12.12H46.0277V15.648ZM50.4917 17.688C50.4917 17.192 50.3917 16.76 50.1917 16.392C49.9917 16.024 49.7197 15.744 49.3757 15.552C49.0397 15.36 48.6677 15.264 48.2597 15.264C47.8597 15.264 47.4877 15.364 47.1437 15.564C46.8077 15.756 46.5357 16.04 46.3277 16.416C46.1277 16.784 46.0277 17.212 46.0277 17.7C46.0277 18.196 46.1277 18.632 46.3277 19.008C46.5357 19.376 46.8077 19.66 47.1437 19.86C47.4877 20.052 47.8597 20.148 48.2597 20.148C48.6677 20.148 49.0397 20.052 49.3757 19.86C49.7197 19.66 49.9917 19.376 50.1917 19.008C50.3917 18.632 50.4917 18.192 50.4917 17.688ZM58.7091 14.424L54.7491 24.096H53.6211L54.9171 20.928L52.2651 14.424H53.4771L55.5411 19.752L57.5811 14.424H58.7091ZM69.342 15.06C69.11 14.572 68.774 14.196 68.334 13.932C67.894 13.66 67.382 13.524 66.798 13.524C66.214 13.524 65.686 13.66 65.214 13.932C64.75 14.196 64.382 14.58 64.11 15.084C63.846 15.58 63.714 16.156 63.714 16.812C63.714 17.468 63.846 18.044 64.11 18.54C64.382 19.036 64.75 19.42 65.214 19.692C65.686 19.956 66.214 20.088 66.798 20.088C67.614 20.088 68.286 19.844 68.814 19.356C69.342 18.868 69.65 18.208 69.738 17.376H66.402V16.488H70.902V17.328C70.838 18.016 70.622 18.648 70.254 19.224C69.886 19.792 69.402 20.244 68.802 20.58C68.202 20.908 67.534 21.072 66.798 21.072C66.022 21.072 65.314 20.892 64.674 20.532C64.034 20.164 63.526 19.656 63.15 19.008C62.782 18.36 62.598 17.628 62.598 16.812C62.598 15.996 62.782 15.264 63.15 14.616C63.526 13.96 64.034 13.452 64.674 13.092C65.314 12.724 66.022 12.54 66.798 12.54C67.686 12.54 68.47 12.76 69.15 13.2C69.838 13.64 70.338 14.26 70.65 15.06H69.342ZM71.9379 17.688C71.9379 17.016 72.0739 16.428 72.3459 15.924C72.6179 15.412 72.9899 15.016 73.4619 14.736C73.9419 14.456 74.4739 14.316 75.0579 14.316C75.6339 14.316 76.1339 14.44 76.5579 14.688C76.9819 14.936 77.2979 15.248 77.5059 15.624V14.424H78.6099V21H77.5059V19.776C77.2899 20.16 76.9659 20.48 76.5339 20.736C76.1099 20.984 75.6139 21.108 75.0459 21.108C74.4619 21.108 73.9339 20.964 73.4619 20.676C72.9899 20.388 72.6179 19.984 72.3459 19.464C72.0739 18.944 71.9379 18.352 71.9379 17.688ZM77.5059 17.7C77.5059 17.204 77.4059 16.772 77.2059 16.404C77.0059 16.036 76.7339 15.756 76.3899 15.564C76.0539 15.364 75.6819 15.264 75.2739 15.264C74.8659 15.264 74.4939 15.36 74.1579 15.552C73.8219 15.744 73.5539 16.024 73.3539 16.392C73.1539 16.76 73.0539 17.192 73.0539 17.688C73.0539 18.192 73.1539 18.632 73.3539 19.008C73.5539 19.376 73.8219 19.66 74.1579 19.86C74.4939 20.052 74.8659 20.148 75.2739 20.148C75.6819 20.148 76.0539 20.052 76.3899 19.86C76.7339 19.66 77.0059 19.376 77.2059 19.008C77.4059 18.632 77.5059 18.196 77.5059 17.7ZM88.3633 14.304C88.8753 14.304 89.3313 14.412 89.7313 14.628C90.1313 14.836 90.4473 15.152 90.6793 15.576C90.9113 16 91.0273 16.516 91.0273 17.124V21H89.9473V17.28C89.9473 16.624 89.7833 16.124 89.4553 15.78C89.1353 15.428 88.6993 15.252 88.1473 15.252C87.5793 15.252 87.1273 15.436 86.7913 15.804C86.4553 16.164 86.2873 16.688 86.2873 17.376V21H85.2073V17.28C85.2073 16.624 85.0433 16.124 84.7153 15.78C84.3953 15.428 83.9593 15.252 83.4073 15.252C82.8393 15.252 82.3873 15.436 82.0513 15.804C81.7153 16.164 81.5473 16.688 81.5473 17.376V21H80.4553V14.424H81.5473V15.372C81.7633 15.028 82.0513 14.764 82.4113 14.58C82.7793 14.396 83.1833 14.304 83.6233 14.304C84.1753 14.304 84.6633 14.428 85.0873 14.676C85.5113 14.924 85.8273 15.288 86.0353 15.768C86.2193 15.304 86.5233 14.944 86.9473 14.688C87.3713 14.432 87.8433 14.304 88.3633 14.304ZM98.8185 17.46C98.8185 17.668 98.8065 17.888 98.7825 18.12H93.5265C93.5665 18.768 93.7865 19.276 94.1865 19.644C94.5945 20.004 95.0865 20.184 95.6625 20.184C96.1345 20.184 96.5265 20.076 96.8385 19.86C97.1585 19.636 97.3825 19.34 97.5105 18.972H98.6865C98.5105 19.604 98.1585 20.12 97.6305 20.52C97.1025 20.912 96.4465 21.108 95.6625 21.108C95.0385 21.108 94.4785 20.968 93.9825 20.688C93.4945 20.408 93.1105 20.012 92.8305 19.5C92.5505 18.98 92.4105 18.38 92.4105 17.7C92.4105 17.02 92.5465 16.424 92.8185 15.912C93.0905 15.4 93.4705 15.008 93.9585 14.736C94.4545 14.456 95.0225 14.316 95.6625 14.316C96.2865 14.316 96.8385 14.452 97.3185 14.724C97.7985 14.996 98.1665 15.372 98.4225 15.852C98.6865 16.324 98.8185 16.86 98.8185 17.46ZM97.6905 17.232C97.6905 16.816 97.5985 16.46 97.4145 16.164C97.2305 15.86 96.9785 15.632 96.6585 15.48C96.3465 15.32 95.9985 15.24 95.6145 15.24C95.0625 15.24 94.5905 15.416 94.1985 15.768C93.8145 16.12 93.5945 16.608 93.5385 17.232H97.6905ZM102.588 21.108C102.084 21.108 101.632 21.024 101.232 20.856C100.832 20.68 100.516 20.44 100.284 20.136C100.052 19.824 99.9239 19.468 99.8999 19.068H101.028C101.06 19.396 101.212 19.664 101.484 19.872C101.764 20.08 102.128 20.184 102.576 20.184C102.992 20.184 103.32 20.092 103.56 19.908C103.8 19.724 103.92 19.492 103.92 19.212C103.92 18.924 103.792 18.712 103.536 18.576C103.28 18.432 102.884 18.292 102.348 18.156C101.86 18.028 101.46 17.9 101.148 17.772C100.844 17.636 100.58 17.44 100.356 17.184C100.14 16.92 100.032 16.576 100.032 16.152C100.032 15.816 100.132 15.508 100.332 15.228C100.532 14.948 100.816 14.728 101.184 14.568C101.552 14.4 101.972 14.316 102.444 14.316C103.172 14.316 103.76 14.5 104.208 14.868C104.656 15.236 104.896 15.74 104.928 16.38H103.836C103.812 16.036 103.672 15.76 103.416 15.552C103.168 15.344 102.832 15.24 102.408 15.24C102.016 15.24 101.704 15.324 101.472 15.492C101.24 15.66 101.124 15.88 101.124 16.152C101.124 16.368 101.192 16.548 101.328 16.692C101.472 16.828 101.648 16.94 101.856 17.028C102.072 17.108 102.368 17.2 102.744 17.304C103.216 17.432 103.6 17.56 103.896 17.688C104.192 17.808 104.444 17.992 104.652 18.24C104.868 18.488 104.98 18.812 104.988 19.212C104.988 19.572 104.888 19.896 104.688 20.184C104.488 20.472 104.204 20.7 103.836 20.868C103.476 21.028 103.06 21.108 102.588 21.108ZM114.673 19.14H111.025L110.353 21H109.201L112.225 12.684H113.485L116.497 21H115.345L114.673 19.14ZM114.361 18.252L112.849 14.028L111.337 18.252H114.361ZM123.407 15.084C123.407 15.78 123.167 16.36 122.687 16.824C122.215 17.28 121.491 17.508 120.515 17.508H118.907V21H117.815V12.636H120.515C121.459 12.636 122.175 12.864 122.663 13.32C123.159 13.776 123.407 14.364 123.407 15.084ZM120.515 16.608C121.123 16.608 121.571 16.476 121.859 16.212C122.147 15.948 122.291 15.572 122.291 15.084C122.291 14.052 121.699 13.536 120.515 13.536H118.907V16.608H120.515ZM125.856 12.636V21H124.764V12.636H125.856Z" fill="#E3E3E3"/>
</svg>
