<svg width="119" height="21" viewBox="0 0 119 21" fill="none" xmlns="http://www.w3.org/2000/svg">
<path d="M10.94 5.48C10.94 6.29333 10.7533 7.04 10.38 7.72C10.0067 8.38667 9.43333 8.92667 8.66 9.34C7.88667 9.75333 6.92667 9.96 5.78 9.96H3.66V15H0.24V0.96H5.78C6.9 0.96 7.84667 1.15333 8.62 1.54C9.39333 1.92667 9.97333 2.46 10.36 3.14C10.7467 3.82 10.94 4.6 10.94 5.48ZM5.52 7.24C6.17333 7.24 6.66 7.08667 6.98 6.78C7.3 6.47333 7.46 6.04 7.46 5.48C7.46 4.92 7.3 4.48667 6.98 4.18C6.66 3.87333 6.17333 3.72 5.52 3.72H3.66V7.24H5.52ZM17.8005 15.16C16.7071 15.16 15.7205 14.9267 14.8405 14.46C13.9738 13.9933 13.2871 13.3267 12.7805 12.46C12.2871 11.5933 12.0405 10.58 12.0405 9.42C12.0405 8.27333 12.2938 7.26667 12.8005 6.4C13.3071 5.52 14.0005 4.84667 14.8805 4.38C15.7605 3.91333 16.7471 3.68 17.8405 3.68C18.9338 3.68 19.9205 3.91333 20.8005 4.38C21.6805 4.84667 22.3738 5.52 22.8805 6.4C23.3871 7.26667 23.6405 8.27333 23.6405 9.42C23.6405 10.5667 23.3805 11.58 22.8605 12.46C22.3538 13.3267 21.6538 13.9933 20.7605 14.46C19.8805 14.9267 18.8938 15.16 17.8005 15.16ZM17.8005 12.2C18.4538 12.2 19.0071 11.96 19.4605 11.48C19.9271 11 20.1605 10.3133 20.1605 9.42C20.1605 8.52667 19.9338 7.84 19.4805 7.36C19.0405 6.88 18.4938 6.64 17.8405 6.64C17.1738 6.64 16.6205 6.88 16.1805 7.36C15.7405 7.82667 15.5205 8.51333 15.5205 9.42C15.5205 10.3133 15.7338 11 16.1605 11.48C16.6005 11.96 17.1471 12.2 17.8005 12.2ZM41.4748 3.84L38.4548 15H34.6748L32.9148 7.76L31.0948 15H27.3348L24.2948 3.84H27.7148L29.2948 11.82L31.1748 3.84H34.7948L36.6948 11.78L38.2548 3.84H41.4748ZM53.2991 9.24C53.2991 9.56 53.2791 9.89333 53.2391 10.24H45.4991C45.5524 10.9333 45.7724 11.4667 46.1591 11.84C46.5591 12.2 47.0457 12.38 47.6191 12.38C48.4724 12.38 49.0657 12.02 49.3991 11.3H53.0391C52.8524 12.0333 52.5124 12.6933 52.0191 13.28C51.5391 13.8667 50.9324 14.3267 50.1991 14.66C49.4657 14.9933 48.6457 15.16 47.7391 15.16C46.6457 15.16 45.6724 14.9267 44.8191 14.46C43.9657 13.9933 43.2991 13.3267 42.8191 12.46C42.3391 11.5933 42.0991 10.58 42.0991 9.42C42.0991 8.26 42.3324 7.24667 42.7991 6.38C43.2791 5.51333 43.9457 4.84667 44.7991 4.38C45.6524 3.91333 46.6324 3.68 47.7391 3.68C48.8191 3.68 49.7791 3.90667 50.6191 4.36C51.4591 4.81333 52.1124 5.46 52.5791 6.3C53.0591 7.14 53.2991 8.12 53.2991 9.24ZM49.7991 8.34C49.7991 7.75333 49.5991 7.28667 49.1991 6.94C48.7991 6.59333 48.2991 6.42 47.6991 6.42C47.1257 6.42 46.6391 6.58667 46.2391 6.92C45.8524 7.25333 45.6124 7.72667 45.5191 8.34H49.7991ZM58.5233 5.7C58.9233 5.08667 59.4233 4.60667 60.0233 4.26C60.6233 3.9 61.2899 3.72 62.0233 3.72V7.34H61.0833C60.2299 7.34 59.5899 7.52667 59.1633 7.9C58.7366 8.26 58.5233 8.9 58.5233 9.82V15H55.1033V3.84H58.5233V5.7ZM74.178 9.24C74.178 9.56 74.158 9.89333 74.118 10.24H66.378C66.4313 10.9333 66.6513 11.4667 67.038 11.84C67.438 12.2 67.9246 12.38 68.498 12.38C69.3513 12.38 69.9446 12.02 70.278 11.3H73.918C73.7313 12.0333 73.3913 12.6933 72.898 13.28C72.418 13.8667 71.8113 14.3267 71.078 14.66C70.3446 14.9933 69.5246 15.16 68.618 15.16C67.5246 15.16 66.5513 14.9267 65.698 14.46C64.8446 13.9933 64.178 13.3267 63.698 12.46C63.218 11.5933 62.978 10.58 62.978 9.42C62.978 8.26 63.2113 7.24667 63.678 6.38C64.158 5.51333 64.8246 4.84667 65.678 4.38C66.5313 3.91333 67.5113 3.68 68.618 3.68C69.698 3.68 70.658 3.90667 71.498 4.36C72.338 4.81333 72.9913 5.46 73.458 6.3C73.938 7.14 74.178 8.12 74.178 9.24ZM70.678 8.34C70.678 7.75333 70.478 7.28667 70.078 6.94C69.678 6.59333 69.178 6.42 68.578 6.42C68.0046 6.42 67.518 6.58667 67.118 6.92C66.7313 7.25333 66.4913 7.72667 66.398 8.34H70.678ZM75.3022 9.4C75.3022 8.25333 75.5155 7.24667 75.9422 6.38C76.3822 5.51333 76.9755 4.84667 77.7222 4.38C78.4689 3.91333 79.3022 3.68 80.2222 3.68C80.9555 3.68 81.6222 3.83333 82.2222 4.14C82.8355 4.44667 83.3155 4.86 83.6622 5.38V0.2H87.0822V15H83.6622V13.4C83.3422 13.9333 82.8822 14.36 82.2822 14.68C81.6955 15 81.0089 15.16 80.2222 15.16C79.3022 15.16 78.4689 14.9267 77.7222 14.46C76.9755 13.98 76.3822 13.3067 75.9422 12.44C75.5155 11.56 75.3022 10.5467 75.3022 9.4ZM83.6622 9.42C83.6622 8.56667 83.4222 7.89333 82.9422 7.4C82.4755 6.90667 81.9022 6.66 81.2222 6.66C80.5422 6.66 79.9622 6.90667 79.4822 7.4C79.0155 7.88 78.7822 8.54667 78.7822 9.4C78.7822 10.2533 79.0155 10.9333 79.4822 11.44C79.9622 11.9333 80.5422 12.18 81.2222 12.18C81.9022 12.18 82.4755 11.9333 82.9422 11.44C83.4222 10.9467 83.6622 10.2733 83.6622 9.42ZM97.2147 5.42C97.5347 4.9 97.9947 4.48 98.5947 4.16C99.1947 3.84 99.8814 3.68 100.655 3.68C101.575 3.68 102.408 3.91333 103.155 4.38C103.901 4.84667 104.488 5.51333 104.915 6.38C105.355 7.24667 105.575 8.25333 105.575 9.4C105.575 10.5467 105.355 11.56 104.915 12.44C104.488 13.3067 103.901 13.98 103.155 14.46C102.408 14.9267 101.575 15.16 100.655 15.16C99.868 15.16 99.1814 15.0067 98.5947 14.7C98.008 14.38 97.548 13.96 97.2147 13.44V15H93.7947V0.2H97.2147V5.42ZM102.095 9.4C102.095 8.54667 101.855 7.88 101.375 7.4C100.908 6.90667 100.328 6.66 99.6347 6.66C98.9547 6.66 98.3747 6.90667 97.8947 7.4C97.428 7.89333 97.1947 8.56667 97.1947 9.42C97.1947 10.2733 97.428 10.9467 97.8947 11.44C98.3747 11.9333 98.9547 12.18 99.6347 12.18C100.315 12.18 100.895 11.9333 101.375 11.44C101.855 10.9333 102.095 10.2533 102.095 9.4ZM118.769 3.84L111.769 20.3H108.089L110.649 14.62L106.109 3.84H109.929L112.509 10.82L115.069 3.84H118.769Z" fill="#F4F5F6"/>
</svg>
